<svg width="232" height="41" viewBox="0 0 232 41" fill="none" xmlns="http://www.w3.org/2000/svg">
<path d="M55.6 32.2C54.24 32.2 52.9467 31.9467 51.72 31.44C50.52 30.9067 49.4533 30.1733 48.52 29.24C47.6133 28.3333 46.8933 27.2667 46.36 26.04C45.8533 24.7867 45.6 23.48 45.6 22.12C45.6 20.76 45.8533 19.4667 46.36 18.24C46.8933 16.9867 47.6133 15.9067 48.52 15C49.4533 14.0667 50.52 13.3467 51.72 12.84C52.9467 12.3067 54.24 12.04 55.6 12.04C58.7467 12.04 61.4133 13.3733 63.6 16.04L60.48 17.84C59.0933 16.3733 57.4667 15.64 55.6 15.64C54.72 15.64 53.88 15.8133 53.08 16.16C52.3067 16.48 51.6267 16.9333 51.04 17.52C50.4533 18.1067 49.9867 18.8 49.64 19.6C49.2933 20.4 49.12 21.24 49.12 22.12C49.12 23 49.2933 23.84 49.64 24.64C49.9867 25.44 50.4533 26.1333 51.04 26.72C51.6267 27.3067 52.3067 27.7733 53.08 28.12C53.88 28.44 54.72 28.6 55.6 28.6C57.4667 28.6 59.0933 27.8667 60.48 26.4L63.6 28.2C61.4133 30.8667 58.7467 32.2 55.6 32.2ZM79.8709 32V19.72C79.8709 18.4667 79.4309 17.4 78.5509 16.52C78.1509 16.12 77.6709 15.8 77.1109 15.56C76.5776 15.32 76.0309 15.2 75.4709 15.2C74.2709 15.2 73.2309 15.64 72.3509 16.52C71.4709 17.4 71.0309 18.4667 71.0309 19.72V32H67.5109V5.32H71.0309V13.4C72.3109 12.2 73.7909 11.6 75.4709 11.6C76.5376 11.6 77.5509 11.8133 78.5109 12.24C79.4709 12.64 80.3243 13.2133 81.0709 13.96C81.7909 14.7067 82.3509 15.5867 82.7509 16.6C83.1776 17.5867 83.3909 18.6267 83.3909 19.72V32H79.8709ZM91.1337 23.52C91.1337 24.16 91.3604 24.8267 91.8137 25.52C92.2937 26.2133 92.8404 26.8 93.4537 27.28C94.5737 28.16 95.8804 28.6 97.3737 28.6C99.7471 28.6 101.68 27.4533 103.174 25.16L106.214 26.96C105.174 28.64 103.894 29.9333 102.374 30.84C100.854 31.7467 99.1871 32.2 97.3737 32.2C96.0137 32.2 94.7204 31.9467 93.4937 31.44C92.2671 30.9067 91.1871 30.1733 90.2537 29.24C89.3204 28.3067 88.5871 27.2267 88.0537 26C87.5471 24.7733 87.2937 23.48 87.2937 22.12C87.2937 20.76 87.5471 19.4667 88.0537 18.24C88.5871 16.9867 89.3204 15.8933 90.2537 14.96C91.1604 14.0267 92.2271 13.3067 93.4537 12.8C94.7071 12.2933 96.0137 12.04 97.3737 12.04C98.7337 12.04 100.027 12.2933 101.254 12.8C102.507 13.3067 103.587 14.0267 104.494 14.96C106.467 16.9867 107.454 19.3333 107.454 22C107.454 22.48 107.414 22.9867 107.334 23.52H91.1337ZM97.3737 15.32C96.2804 15.32 95.2537 15.56 94.2937 16.04C93.3337 16.52 92.5604 17.16 91.9737 17.96C91.4137 18.7333 91.1337 19.56 91.1337 20.44H103.614C103.614 19.56 103.32 18.7333 102.734 17.96C102.174 17.16 101.414 16.52 100.454 16.04C99.4937 15.56 98.4671 15.32 97.3737 15.32ZM114.403 23.52C114.403 24.16 114.629 24.8267 115.083 25.52C115.563 26.2133 116.109 26.8 116.723 27.28C117.843 28.16 119.149 28.6 120.643 28.6C123.016 28.6 124.949 27.4533 126.443 25.16L129.483 26.96C128.443 28.64 127.163 29.9333 125.643 30.84C124.123 31.7467 122.456 32.2 120.643 32.2C119.283 32.2 117.989 31.9467 116.763 31.44C115.536 30.9067 114.456 30.1733 113.523 29.24C112.589 28.3067 111.856 27.2267 111.323 26C110.816 24.7733 110.563 23.48 110.563 22.12C110.563 20.76 110.816 19.4667 111.323 18.24C111.856 16.9867 112.589 15.8933 113.523 14.96C114.429 14.0267 115.496 13.3067 116.723 12.8C117.976 12.2933 119.283 12.04 120.643 12.04C122.003 12.04 123.296 12.2933 124.523 12.8C125.776 13.3067 126.856 14.0267 127.763 14.96C129.736 16.9867 130.723 19.3333 130.723 22C130.723 22.48 130.683 22.9867 130.603 23.52H114.403ZM120.643 15.32C119.549 15.32 118.523 15.56 117.563 16.04C116.603 16.52 115.829 17.16 115.243 17.96C114.683 18.7333 114.403 19.56 114.403 20.44H126.883C126.883 19.56 126.589 18.7333 126.003 17.96C125.443 17.16 124.683 16.52 123.723 16.04C122.763 15.56 121.736 15.32 120.643 15.32ZM134.222 32V28.76L145.462 15.72H134.222V12.16H150.422V15.44L139.222 28.44H150.422V32H134.222ZM165.496 32.2C164.243 32.2 163.029 31.9067 161.856 31.32C160.709 30.7333 159.709 29.9333 158.856 28.92V32H155.336V5.44H158.856V14.88C159.443 14.0533 160.309 13.32 161.456 12.68C162.629 12.04 163.976 11.72 165.496 11.72C166.856 11.72 168.163 11.9867 169.416 12.52C170.669 13.0533 171.749 13.7867 172.656 14.72C173.589 15.68 174.309 16.7867 174.816 18.04C175.349 19.2667 175.616 20.5733 175.616 21.96C175.616 23.3467 175.349 24.6667 174.816 25.92C174.309 27.1467 173.589 28.24 172.656 29.2C171.749 30.1333 170.669 30.8667 169.416 31.4C168.163 31.9333 166.856 32.2 165.496 32.2ZM165.496 15.36C164.616 15.36 163.763 15.5333 162.936 15.88C162.136 16.2 161.443 16.6667 160.856 17.28C160.269 17.8933 159.803 18.6133 159.456 19.44C159.109 20.24 158.936 21.08 158.936 21.96C158.936 23.7467 159.576 25.3067 160.856 26.64C161.443 27.2533 162.136 27.7333 162.936 28.08C163.763 28.4267 164.616 28.6 165.496 28.6C166.376 28.6 167.216 28.4267 168.016 28.08C168.816 27.7333 169.509 27.2533 170.096 26.64C171.376 25.3067 172.016 23.7467 172.016 21.96C172.016 21.08 171.843 20.24 171.496 19.44C171.149 18.6133 170.683 17.8933 170.096 17.28C169.509 16.6667 168.816 16.2 168.016 15.88C167.216 15.5333 166.376 15.36 165.496 15.36ZM179.503 32V5.4H182.703V32H179.503ZM196.711 32.2C195.351 32.2 194.057 31.9333 192.831 31.4C191.604 30.8667 190.524 30.1333 189.591 29.2C188.657 28.2667 187.924 27.1867 187.391 25.96C186.857 24.7333 186.591 23.44 186.591 22.08C186.591 20.6933 186.857 19.3733 187.391 18.12C187.924 16.8667 188.657 15.7733 189.591 14.84C190.524 13.9067 191.604 13.1867 192.831 12.68C194.057 12.1467 195.351 11.88 196.711 11.88C198.097 11.88 199.417 12.1467 200.671 12.68C201.924 13.1867 203.017 13.9067 203.951 14.84C204.884 15.7733 205.604 16.8667 206.111 18.12C206.644 19.3733 206.911 20.6933 206.911 22.08C206.911 23.44 206.644 24.7333 206.111 25.96C205.604 27.1867 204.884 28.2667 203.951 29.2C203.017 30.1333 201.924 30.8667 200.671 31.4C199.417 31.9333 198.097 32.2 196.711 32.2ZM196.711 15.44C194.924 15.44 193.391 16.08 192.111 17.36C191.497 17.9733 191.017 18.6933 190.671 19.52C190.324 20.3467 190.151 21.2 190.151 22.08C190.151 22.96 190.324 23.8 190.671 24.6C191.017 25.4 191.497 26.1067 192.111 26.72C192.724 27.3333 193.417 27.8133 194.191 28.16C194.991 28.5067 195.831 28.68 196.711 28.68C197.591 28.68 198.444 28.5067 199.271 28.16C200.097 27.8133 200.804 27.3333 201.391 26.72C201.977 26.1067 202.444 25.4 202.791 24.6C203.137 23.8 203.311 22.96 203.311 22.08C203.311 21.2 203.137 20.3467 202.791 19.52C202.444 18.6933 201.977 17.9733 201.391 17.36C200.804 16.7467 200.097 16.28 199.271 15.96C198.471 15.6133 197.617 15.44 196.711 15.44ZM219.705 40.52C216.532 40.52 213.785 39.1067 211.465 36.28L214.625 34.4C216.065 36.08 217.758 36.92 219.705 36.92C220.585 36.92 221.425 36.7467 222.225 36.4C223.025 36.0533 223.718 35.5733 224.305 34.96C224.892 34.3467 225.345 33.64 225.665 32.84C226.012 32.04 226.185 31.2 226.185 30.32V29.36C224.372 31.3867 222.198 32.4 219.665 32.4C218.305 32.4 216.998 32.12 215.745 31.56C214.518 30.9733 213.452 30.1867 212.545 29.2C211.638 28.2133 210.918 27.0933 210.385 25.84C209.878 24.5867 209.625 23.2933 209.625 21.96C209.625 20.6 209.878 19.32 210.385 18.12C210.918 16.8933 211.652 15.8133 212.585 14.88C213.518 13.9733 214.585 13.2667 215.785 12.76C217.012 12.2533 218.305 12 219.665 12C221.132 12 222.438 12.32 223.585 12.96C224.732 13.6 225.598 14.32 226.185 15.12V12.36H229.785V30.32C229.785 31.7067 229.518 33.0133 228.985 34.24C228.478 35.4667 227.758 36.56 226.825 37.52C225.918 38.4533 224.838 39.1867 223.585 39.72C222.358 40.2533 221.065 40.52 219.705 40.52ZM219.665 15.64C218.785 15.64 217.945 15.8133 217.145 16.16C216.345 16.48 215.652 16.9467 215.065 17.56C214.478 18.1733 214.012 18.8933 213.665 19.72C213.318 20.52 213.145 21.36 213.145 22.24C213.145 23.12 213.318 23.9733 213.665 24.8C214.012 25.6 214.478 26.2933 215.065 26.88C215.652 27.4667 216.345 27.9333 217.145 28.28C217.945 28.6267 218.785 28.8 219.665 28.8C220.545 28.8 221.385 28.6267 222.185 28.28C222.985 27.9333 223.678 27.4667 224.265 26.88C224.852 26.2933 225.305 25.6 225.625 24.8C225.972 23.9733 226.145 23.12 226.145 22.24C226.145 21.36 225.972 20.52 225.625 19.72C225.305 18.8933 224.852 18.1733 224.265 17.56C223.678 16.9467 222.985 16.48 222.185 16.16C221.385 15.8133 220.545 15.64 219.665 15.64Z" fill="#7D7C78"/>
<path d="M31.2227 20.0105C30.33 20.0105 29.606 20.734 29.606 21.6267C29.606 22.5193 30.33 23.2422 31.2227 23.2422C32.1153 23.2422 32.8388 22.5193 32.8388 21.6267C32.8388 20.734 32.1153 20.0105 31.2227 20.0105Z" fill="#F8A488"/>
<path d="M24.7033 34.1224L24.6995 34.1254L24.6987 34.1269L24.7033 34.1224Z" fill="#F8A488"/>
<path d="M23.98 34.7025L23.974 34.7058C23.9727 34.7071 23.9713 34.7071 23.9707 34.7085L23.98 34.7025Z" fill="#F8A488"/>
<path d="M22.5169 35.2778L22.4905 35.285C22.4893 35.285 22.4875 35.2869 22.4863 35.2869L22.5169 35.2778Z" fill="#F8A488"/>
<path d="M36.3428 13.3085L36.3422 13.3066C36.2882 13.1812 36.2306 13.0673 36.1754 12.958C36.1478 12.8903 36.1262 12.8405 36.1142 12.8141H36.1136C36.0578 12.6965 35.9924 12.6035 35.9301 12.5243C35.3925 11.6377 34.6541 10.8555 33.7716 10.1674C32.0667 8.84398 29.8171 7.82475 27.2003 7.1109C24.5819 6.39892 21.5902 6.00058 18.4072 6C13.5558 6.00302 9.15317 6.91727 5.83097 8.4841C4.16987 9.27238 2.76618 10.2274 1.72351 11.3888C1.20222 11.972 0.773244 12.6114 0.470892 13.3091C0.169188 14.005 0 14.7591 0 15.5377V25.7599C0 27.2458 0.539344 28.6633 1.43497 29.8944C2.78229 31.7408 4.91191 33.2387 7.59101 34.3065C10.2774 35.3708 13.5372 35.9989 17.2049 36C17.7334 36 18.3939 35.9574 19.1222 35.8824C20.2152 35.7655 21.4378 35.5753 22.4841 35.2874L22.4907 35.2849C23.0084 35.1386 23.5021 34.9724 23.9646 34.7109L23.9736 34.7055C24.1979 34.5765 24.4583 34.3994 24.6935 34.132L24.6995 34.1248C24.8189 33.9868 24.9437 33.8104 25.0391 33.5915L25.0396 33.5903C25.1362 33.3666 25.1986 33.1097 25.1998 32.826V28.0293L32.9037 28.3058L33.0165 28.3082H33.0278C34.0069 28.3082 34.9499 27.9285 35.6572 27.2464C36.3961 26.5325 36.8143 25.5493 36.8143 24.5218V15.5377C36.8143 14.7591 36.6451 14.0044 36.3428 13.3085ZM2.47339 15.5377C2.47404 15.1172 2.56154 14.7068 2.74094 14.2905C3.05408 13.564 3.6636 12.8172 4.56289 12.1176C5.90783 11.0684 7.88207 10.1433 10.2636 9.49671C12.6458 8.84829 15.4323 8.47274 18.4072 8.47339C22.94 8.47102 27.039 9.35046 29.9263 10.7194C31.3703 11.402 32.5058 12.2053 33.2479 13.0379C33.5233 13.3457 33.7441 13.6559 33.9138 13.966L33.9594 14.1088C33.9942 14.2324 34.0207 14.3823 34.0194 14.4933C34.02 14.5647 34.0099 14.6175 34.0008 14.6427L33.9876 14.6709C33.9834 14.6739 33.9828 14.687 33.9061 14.7195C33.8311 14.7495 33.6751 14.7879 33.4178 14.7873L33.3572 14.7867H33.3579C33.2228 14.7837 32.8779 14.7723 32.3944 14.7543C30.6979 14.6913 27.2503 14.5503 24.228 14.4249C22.7169 14.3626 21.3119 14.3044 20.2843 14.2611C19.2573 14.2179 18.6099 14.1904 18.6082 14.1904V14.1916L18.5896 14.1897H18.5674V14.1891L18.5512 14.1897V14.1903C18.2081 14.1964 17.8883 14.3811 17.7132 14.6847L17.7119 14.6841L17.7071 14.6949L17.7017 14.7026L17.7029 14.7038C17.6195 14.8562 17.5805 15.0193 17.5805 15.1765C17.5799 15.3649 17.6345 15.5533 17.7413 15.717L22.0125 22.2504C22.1055 22.392 22.1913 22.5372 22.2699 22.6847C21.0305 22.8251 19.7394 22.9042 18.4071 22.9042C13.8353 22.9055 9.70021 22.0224 6.75953 20.6277C5.28861 19.9336 4.12119 19.1111 3.34198 18.2389C2.95744 17.8076 2.6671 17.3661 2.47332 16.9216V15.5377H2.47339ZM22.7264 32.5705C22.6526 32.6107 22.5482 32.6611 22.4186 32.7109C22.1253 32.8261 21.7161 32.9418 21.2603 33.0438C20.5746 33.1967 19.7804 33.3197 19.0478 33.4025C18.3153 33.4853 17.6369 33.5273 17.2049 33.5273C12.6937 33.5291 8.93236 32.4858 6.35888 30.9675C5.07088 30.2099 4.08466 29.3365 3.43617 28.4413C2.78653 27.5427 2.47397 26.6399 2.47332 25.7598V19.0656C2.81407 19.4441 3.20277 19.8041 3.63951 20.1435C5.2034 21.3601 7.34388 22.341 9.8689 23.0296C12.3944 23.7165 15.3057 24.1065 18.4072 24.1065C19.8853 24.1065 21.3179 24.0152 22.6874 23.8479C22.712 23.9931 22.7264 24.1358 22.7264 24.275V32.5705V32.5705ZM34.3416 24.5218C34.3416 24.878 34.1964 25.2188 33.9396 25.4672C33.6955 25.7029 33.3674 25.8354 33.0278 25.8349L32.9792 25.8344L28.216 25.6634C28.3084 25.4894 28.366 25.2944 28.366 25.0833C28.366 24.3982 27.8111 23.8433 27.126 23.8433C26.4409 23.8433 25.8854 24.3982 25.8854 25.0833C25.8854 25.262 25.9249 25.4306 25.9928 25.5836L24.5303 25.5314V24.2752C24.5303 23.7029 24.4121 23.1576 24.2297 22.6537C24.0894 22.2673 23.9106 21.905 23.7108 21.5661C24.1925 21.3711 24.5332 20.9008 24.5332 20.3483C24.5332 19.6224 23.9441 19.0328 23.2177 19.0328C22.8638 19.0328 22.5428 19.175 22.307 19.4029L20.1204 16.0597C21.442 16.1149 23.4294 16.1977 25.4685 16.2823C25.7036 16.2918 25.9406 16.3008 26.1763 16.311C26.1385 16.449 26.1116 16.5912 26.1116 16.7411C26.1116 17.6338 26.835 18.3566 27.7277 18.3566C28.6204 18.3566 29.3432 17.6338 29.3432 16.7411C29.3432 16.638 29.3318 16.5372 29.3126 16.4388C29.7248 16.4556 30.12 16.4712 30.4908 16.4862C31.2113 16.5144 31.84 16.539 32.3276 16.5576C32.801 16.5744 33.1321 16.5863 33.3019 16.59L33.2814 16.5894L33.3139 16.59H33.3204H33.3222L33.4176 16.5912C33.7523 16.5912 34.0583 16.5522 34.3414 16.4699V24.5218H34.3416Z" fill="#F8A488"/>
</svg>
